<svg version="1.1" viewBox="0.0 0.0 310.6115485564304 315.37270341207346" fill="none" stroke="none" stroke-linecap="square" stroke-miterlimit="10" xmlns:xlink="http://www.w3.org/1999/xlink" xmlns="http://www.w3.org/2000/svg"><clipPath id="p.0"><path d="m0 0l310.61154 0l0 315.3727l-310.61154 0l0 -315.3727z" clip-rule="nonzero"/></clipPath><g clip-path="url(#p.0)"><path fill="#000000" fill-opacity="0.0" d="m0 0l310.61154 0l0 315.3727l-310.61154 0z" fill-rule="evenodd"/><path fill="#000000" fill-opacity="0.0" d="m32.02231 27.863518l57.354332 0l0 76.09449l-57.354332 0z" fill-rule="evenodd"/><path fill="#000000" d="m65.01198 102.31951q-4.656254 -5.875 -7.875004 -13.75q-3.21875 -7.875 -3.21875 -16.3125q0 -7.4375 2.40625 -14.25q2.8125 -7.90625 8.687504 -15.75l4.03125 0q-3.78125 6.5 -5.0 9.28125q-1.9062538 4.3125 -3.0000038 9.0q-1.34375 5.84375 -1.34375 11.75q0 15.03125 9.343754 30.03125l-4.03125 0z" fill-rule="nonzero"/><path fill="#000000" fill-opacity="0.0" d="m229.33989 116.68767l-57.354324 0l0 -76.0945l57.354324 0z" fill-rule="evenodd"/><path fill="#000000" d="m196.35023 42.23167q4.65625 5.875 7.875 13.75q3.21875 7.875 3.21875 16.312504q0 7.4375 -2.40625 14.25q-2.8125 7.90625 -8.6875 15.75l-4.03125 0q3.78125 -6.5 5.0 -9.28125q1.90625 -4.3125 3.0 -9.0q1.34375 -5.84375 1.34375 -11.75q0 -15.031254 -9.34375 -30.031254l4.03125 0z" fill-rule="nonzero"/><path fill="#000000" fill-opacity="0.0" d="m31.797901 84.74016l59.937008 0l0 48.472443l-59.937008 0z" fill-rule="evenodd"/><path fill="#000000" d="m41.95415 115.37891l-0.1875 -1.53125q0.546875 0.140625 0.9375 0.140625q0.546875 0 0.875 -0.1875q0.328125 -0.171875 0.546875 -0.5q0.15625 -0.25 0.5 -1.21875q0.046875 -0.140625 0.140625 -0.40625l-3.671875 -9.6875l1.765625 0l2.015625 5.59375q0.390625 1.078125 0.703125 2.25q0.28125 -1.125 0.671875 -2.203125l2.078125 -5.640625l1.640625 0l-3.6875 9.828125q-0.59375 1.609375 -0.921875 2.203125q-0.4375 0.8125 -1.0 1.1875q-0.5625 0.375 -1.34375 0.375q-0.484375 0 -1.0625 -0.203125zm18.03125 -11.578125l-8.828125 0l0 -1.515625l8.828125 0l0 1.515625zm0 4.0625l-8.828125 0l0 -1.53125l8.828125 0l0 1.53125z" fill-rule="nonzero"/><path fill="#000000" fill-opacity="0.0" d="m63.07349 106.11286l192.44095 0.03149414" fill-rule="evenodd"/><path stroke="#000000" stroke-width="2.0" stroke-linejoin="round" stroke-linecap="butt" d="m63.07349 106.11286l192.44095 0.03149414" fill-rule="evenodd"/><path fill="#000000" fill-opacity="0.0" d="m69.02362 99.61155l57.354332 0l0 76.09449l-57.354332 0z" fill-rule="evenodd"/><path fill="#000000" d="m102.01329 174.06754q-4.65625 -5.875 -7.875 -13.75q-3.21875 -7.875 -3.21875 -16.3125q0 -7.4375 2.40625 -14.25q2.8125 -7.9062424 8.6875 -15.749992l4.03125 0q-3.78125 6.5 -5.0 9.28125q-1.90625 4.3125 -3.0 8.999992q-1.34375 5.84375 -1.34375 11.75q0 15.03125 9.34375 30.03125l-4.03125 0z" fill-rule="nonzero"/><path fill="#000000" fill-opacity="0.0" d="m229.3412 188.4357l-57.354324 0l0 -76.09449l57.354324 0z" fill-rule="evenodd"/><path fill="#000000" d="m196.35155 113.9797q4.65625 5.875 7.875 13.75q3.21875 7.8750076 3.21875 16.312508q0 7.4375 -2.40625 14.25q-2.8125 7.90625 -8.6875 15.75l-4.03125 0q3.78125 -6.5 5.0 -9.28125q1.90625 -4.3125 3.0 -9.0q1.34375 -5.84375 1.34375 -11.75q0 -15.03125 -9.34375 -30.031258l4.03125 0z" fill-rule="nonzero"/><path fill="#000000" fill-opacity="0.0" d="m69.02362 130.27559l20.503937 0l0 27.496063l-20.503937 0z" fill-rule="evenodd"/><path fill="#000000" d="m87.414246 149.3655l0 1.578125l-8.828125 0q-0.015625 -0.59375 0.1875 -1.140625q0.34375 -0.90625 1.078125 -1.78125q0.75 -0.875 2.15625 -2.015625q2.171875 -1.78125 2.9375 -2.828125q0.765625 -1.046875 0.765625 -1.96875q0 -0.984375 -0.703125 -1.640625q-0.6875 -0.671875 -1.8125 -0.671875q-1.1875 0 -1.90625 0.71875q-0.703125 0.703125 -0.703125 1.953125l-1.6875 -0.171875q0.171875 -1.890625 1.296875 -2.875q1.140625 -0.984375 3.03125 -0.984375q1.921875 0 3.046875 1.0625q1.125 1.0625 1.125 2.640625q0 0.796875 -0.328125 1.578125q-0.328125 0.78125 -1.09375 1.640625q-0.75 0.84375 -2.53125 2.34375q-1.46875 1.234375 -1.890625 1.6875q-0.421875 0.4375 -0.6875 0.875l6.546875 0z" fill-rule="nonzero"/><path fill="#000000" fill-opacity="0.0" d="m57.52231 135.62993l144.0 0l0 16.7874l-144.0 0z" fill-rule="evenodd"/><path fill="#000000" d="m128.66808 128.94362l0 -11.78125l-4.4062576 0l0 -1.578125l10.578133 0l0 1.578125l-4.40625 0l0 11.78125l-1.765625 0z" fill-rule="nonzero"/><path fill="#000000" d="m123.14253 150.94362l0 -13.359375l2.65625 0l3.15625 9.453125q0.4375 1.328125 0.640625 1.984375q0.234375 -0.734375 0.703125 -2.140625l3.203125 -9.296875l2.375 0l0 13.359375l-1.703125 0l0 -11.171875l-3.875 11.171875l-1.59375 0l-3.859375 -11.375l0 11.375l-1.703125 0z" fill-rule="nonzero"/><path fill="#000000" d="m115.724 172.94362l-1.640625 0l0 -10.453125q-0.59375 0.5625 -1.5625 1.140625q-0.953125 0.5625 -1.71875 0.84375l0 -1.59375q1.375 -0.640625 2.40625 -1.5625q1.03125 -0.921875 1.453125 -1.78125l1.0625 0l0 13.40625zm4.203842 -6.59375q0 -2.359375 0.484375 -3.796875q0.484375 -1.453125 1.4375 -2.234375q0.96875 -0.78125 2.421875 -0.78125q1.078125 0 1.890625 0.4375q0.8125 0.421875 1.328125 1.25q0.53125 0.8125 0.828125 1.984375q0.3125 1.15625 0.3125 3.140625q0 2.359375 -0.484375 3.8125q-0.484375 1.4375 -1.453125 2.234375q-0.953125 0.78125 -2.421875 0.78125q-1.921875 0 -3.03125 -1.390625q-1.3125 -1.671875 -1.3125 -5.4375zm1.671875 0q0 3.296875 0.765625 4.390625q0.78125 1.078125 1.90625 1.078125q1.140625 0 1.90625 -1.09375q0.765625 -1.09375 0.765625 -4.375q0 -3.296875 -0.765625 -4.375q-0.765625 -1.078125 -1.921875 -1.078125q-1.125 0 -1.796875 0.953125q-0.859375 1.21875 -0.859375 4.5zm8.703842 0q0 -2.359375 0.484375 -3.796875q0.484375 -1.453125 1.4375 -2.234375q0.96875 -0.78125 2.421875 -0.78125q1.078125 0 1.890625 0.4375q0.8125 0.421875 1.328125 1.25q0.53125 0.8125 0.828125 1.984375q0.3125 1.15625 0.3125 3.140625q0 2.359375 -0.484375 3.8125q-0.484375 1.4375 -1.453125 2.234375q-0.953125 0.78125 -2.421875 0.78125q-1.921875 0 -3.03125 -1.390625q-1.3125 -1.671875 -1.3125 -5.4375zm1.671875 0q0 3.296875 0.765625 4.390625q0.78125 1.078125 1.90625 1.078125q1.140625 0 1.90625 -1.09375q0.765625 -1.09375 0.765625 -4.375q0 -3.296875 -0.765625 -4.375q-0.765625 -1.078125 -1.921875 -1.078125q-1.125 0 -1.796875 0.953125q-0.859375 1.21875 -0.859375 4.5zm8.703842 0q0 -2.359375 0.484375 -3.796875q0.484375 -1.453125 1.4375 -2.234375q0.96875 -0.78125 2.421875 -0.78125q1.078125 0 1.890625 0.4375q0.8125 0.421875 1.328125 1.25q0.53125 0.8125 0.828125 1.984375q0.3125 1.15625 0.3125 3.140625q0 2.359375 -0.484375 3.8125q-0.484375 1.4375 -1.453125 2.234375q-0.953125 0.78125 -2.421875 0.78125q-1.921875 0 -3.03125 -1.390625q-1.3125 -1.671875 -1.3125 -5.4375zm1.671875 0q0 3.296875 0.765625 4.390625q0.78125 1.078125 1.90625 1.078125q1.140625 0 1.90625 -1.09375q0.765625 -1.09375 0.765625 -4.375q0 -3.296875 -0.765625 -4.375q-0.765625 -1.078125 -1.921875 -1.078125q-1.125 0 -1.796875 0.953125q-0.859375 1.21875 -0.859375 4.5z" fill-rule="nonzero"/><path fill="#000000" fill-opacity="0.0" d="m103.5538 134.53018l51.93701 -0.22047424" fill-rule="evenodd"/><path stroke="#000000" stroke-width="2.0" stroke-linejoin="round" stroke-linecap="butt" d="m103.5538 134.53018l51.93701 -0.22047424" fill-rule="evenodd"/><path fill="#000000" fill-opacity="0.0" d="m110.66929 155.08661l35.74804 -0.25196838" fill-rule="evenodd"/><path stroke="#000000" stroke-width="2.0" stroke-linejoin="round" stroke-linecap="butt" d="m110.66929 155.08661l35.74804 -0.25196838" fill-rule="evenodd"/><path fill="#000000" fill-opacity="0.0" d="m150.75066 135.97638l64.7874 0l0 16.094482l-64.7874 0z" fill-rule="evenodd"/><path fill="#000000" d="m183.57614 145.70924l0 -1.578125l5.65625 0l0 4.953125q-1.296875 1.046875 -2.6875 1.578125q-1.375 0.515625 -2.84375 0.515625q-1.96875 0 -3.578125 -0.84375q-1.609375 -0.84375 -2.421875 -2.4375q-0.8125 -1.59375 -0.8125 -3.5625q0 -1.953125 0.8125 -3.640625q0.8125 -1.6875 2.34375 -2.5q1.53125 -0.828125 3.515625 -0.828125q1.453125 0 2.625 0.46875q1.171875 0.46875 1.828125 1.3125q0.671875 0.828125 1.015625 2.171875l-1.59375 0.4375q-0.296875 -1.015625 -0.75 -1.59375q-0.4375 -0.59375 -1.265625 -0.9375q-0.828125 -0.34375 -1.84375 -0.34375q-1.203125 0 -2.09375 0.375q-0.890625 0.359375 -1.4375 0.96875q-0.53125 0.59375 -0.828125 1.3125q-0.515625 1.234375 -0.515625 2.6875q0 1.78125 0.609375 2.984375q0.625 1.203125 1.796875 1.796875q1.171875 0.578125 2.5 0.578125q1.140625 0 2.234375 -0.4375q1.09375 -0.453125 1.65625 -0.953125l0 -2.484375l-3.921875 0z" fill-rule="nonzero"/><path fill="#000000" fill-opacity="0.0" d="m160.24934 144.0l13.480316 -0.09448242" fill-rule="evenodd"/><path stroke="#000000" stroke-width="2.0" stroke-linejoin="round" stroke-linecap="butt" d="m160.24934 144.0l13.480316 -0.09448242" fill-rule="evenodd"/><path fill="#000000" fill-opacity="0.0" d="m59.271652 27.863518l57.354332 0l0 76.09449l-57.354332 0z" fill-rule="evenodd"/><path fill="#000000" d="m92.26132 102.31951q-4.65625 -5.875 -7.875 -13.75q-3.21875 -7.875 -3.21875 -16.3125q0 -7.4375 2.40625 -14.25q2.8125 -7.90625 8.6875 -15.75l4.03125 0q-3.78125 6.5 -5.0 9.28125q-1.90625 4.3125 -3.0 9.0q-1.34375 5.84375 -1.34375 11.75q0 15.03125 9.34375 30.03125l-4.03125 0z" fill-rule="nonzero"/><path fill="#000000" fill-opacity="0.0" d="m272.58923 116.68767l-57.354324 0l0 -76.0945l57.354324 0z" fill-rule="evenodd"/><path fill="#000000" d="m239.59958 42.23167q4.65625 5.875 7.875 13.75q3.21875 7.875 3.21875 16.312504q0 7.4375 -2.40625 14.25q-2.8125 7.90625 -8.6875 15.75l-4.03125 0q3.78125 -6.5 5.0 -9.28125q1.90625 -4.3125 3.0 -9.0q1.34375 -5.84375 1.34375 -11.75q0 -15.031254 -9.34375 -30.031254l4.03125 0z" fill-rule="nonzero"/><path fill="#000000" fill-opacity="0.0" d="m63.07349 72.32284l13.480312 -0.09449005" fill-rule="evenodd"/><path stroke="#000000" stroke-width="2.0" stroke-linejoin="round" stroke-linecap="butt" d="m63.07349 72.32284l13.480312 -0.09449005" fill-rule="evenodd"/><path fill="#000000" fill-opacity="0.0" d="m91.734924 66.09311l7.496063 0" fill-rule="evenodd"/><path stroke="#000000" stroke-width="2.0" stroke-linejoin="round" stroke-linecap="butt" d="m91.734924 66.09311l7.496063 0" fill-rule="evenodd"/><path fill="#000000" fill-opacity="0.0" d="m99.23006 66.687874l13.32283 31.874016" fill-rule="evenodd"/><path stroke="#000000" stroke-width="2.0" stroke-linejoin="round" stroke-linecap="butt" d="m99.23006 66.687874l13.32283 31.874016" fill-rule="evenodd"/><path fill="#000000" fill-opacity="0.0" d="m112.83028 98.88976l5.8267746 -55.74803" fill-rule="evenodd"/><path stroke="#000000" stroke-width="2.0" stroke-linejoin="round" stroke-linecap="butt" d="m112.83028 98.88976l5.8267746 -55.74803" fill-rule="evenodd"/><path fill="#000000" fill-opacity="0.0" d="m118.93537 43.729908l63.55906 0.598423" fill-rule="evenodd"/><path stroke="#000000" stroke-width="2.0" stroke-linejoin="round" stroke-linecap="butt" d="m118.93537 43.729908l63.55906 0.598423" fill-rule="evenodd"/><path fill="#000000" fill-opacity="0.0" d="m236.08661 20.832022l32.503937 0l0 23.496061l-32.503937 0z" fill-rule="evenodd"/><path fill="#000000" d="m254.47723 46.173893l0 1.578125l-8.828125 0q-0.015625 -0.59375 0.1875 -1.140625q0.34375 -0.90625 1.078125 -1.78125q0.75 -0.875 2.15625 -2.015625q2.171875 -1.78125 2.9375 -2.828125q0.765625 -1.046875 0.765625 -1.96875q0 -0.984375 -0.703125 -1.640625q-0.6875 -0.671875 -1.8125 -0.671875q-1.1875 0 -1.90625 0.71875q-0.703125 0.703125 -0.703125 1.953125l-1.6875 -0.171875q0.171875 -1.890625 1.296875 -2.875q1.140625 -0.984375 3.03125 -0.984375q1.921875 0 3.046875 1.0625q1.125 1.0625 1.125 2.640625q0 0.796875 -0.328125 1.578125q-0.328125 0.78125 -1.09375 1.640625q-0.75 0.84375 -2.53125 2.34375q-1.46875 1.234375 -1.890625 1.6875q-0.421875 0.4375 -0.6875 0.875l6.546875 0z" fill-rule="nonzero"/><path fill="#000000" fill-opacity="0.0" d="m199.53806 62.968502l64.787415 0l0 16.094494l-64.787415 0z" fill-rule="evenodd"/><path fill="#000000" d="m232.36354 72.70137l0 -1.578125l5.65625 0l0 4.953125q-1.296875 1.046875 -2.6875 1.578125q-1.375 0.515625 -2.84375 0.515625q-1.96875 0 -3.578125 -0.84375q-1.609375 -0.84375 -2.421875 -2.4375q-0.8125 -1.59375 -0.8125 -3.5625q0 -1.953125 0.8125 -3.640625q0.8125 -1.6875 2.34375 -2.5q1.53125 -0.828125 3.515625 -0.828125q1.453125 0 2.625 0.46875q1.171875 0.46875 1.828125 1.3125q0.671875 0.828125 1.015625 2.171875l-1.59375 0.4375q-0.296875 -1.015625 -0.75 -1.59375q-0.4375 -0.59375 -1.265625 -0.9375q-0.828125 -0.34375 -1.84375 -0.34375q-1.203125 0 -2.09375 0.375q-0.890625 0.359375 -1.4375 0.96875q-0.53125 0.59375 -0.828125 1.3125q-0.515625 1.234375 -0.515625 2.6875q0 1.78125 0.609375 2.984375q0.625 1.203125 1.796875 1.796875q1.171875 0.578125 2.5 0.578125q1.140625 0 2.234375 -0.4375q1.09375 -0.453125 1.65625 -0.953125l0 -2.484375l-3.921875 0z" fill-rule="nonzero"/><path fill="#000000" d="m213.3412 71.01575l0 0c0 -1.6438065 1.3043671 -2.9763794 2.913391 -2.9763794l0 0c0.77267456 0 1.5137024 0.31358337 2.0600739 0.87176514c0.54637146 0.55817413 0.85331726 1.3152313 0.85331726 2.1046143l0 0c0 1.6438065 -1.3043671 2.9763794 -2.913391 2.9763794l0 0c-1.609024 0 -2.913391 -1.3325729 -2.913391 -2.9763794z" fill-rule="evenodd"/><path stroke="#000000" stroke-width="1.0" stroke-linejoin="round" stroke-linecap="butt" d="m213.3412 71.01575l0 0c0 -1.6438065 1.3043671 -2.9763794 2.913391 -2.9763794l0 0c0.77267456 0 1.5137024 0.31358337 2.0600739 0.87176514c0.54637146 0.55817413 0.85331726 1.3152313 0.85331726 2.1046143l0 0c0 1.6438065 -1.3043671 2.9763794 -2.913391 2.9763794l0 0c-1.609024 0 -2.913391 -1.3325729 -2.913391 -2.9763794z" fill-rule="evenodd"/><path fill="#000000" fill-opacity="0.0" d="m124.59055 35.63517l144.0 0l0 16.787403l-144.0 0z" fill-rule="evenodd"/><path fill="#000000" d="m133.5593 61.34257l5.125 -13.359375l1.90625 0l5.46875 13.359375l-2.015625 0l-1.546875 -4.046875l-5.59375 0l-1.46875 4.046875l-1.875 0zm3.859375 -5.484375l4.53125 0l-1.40625 -3.703125q-0.625 -1.6875 -0.9375 -2.765625q-0.265625 1.28125 -0.71875 2.546875l-1.46875 3.921875zm9.209198 1.46875l0 -1.640625l5.03125 0l0 1.640625l-5.03125 0zm5.759552 4.015625l3.53125 -5.03125l-3.265625 -4.640625l2.046875 0l1.484375 2.265625q0.421875 0.640625 0.671875 1.078125q0.40625 -0.59375 0.734375 -1.0625l1.640625 -2.28125l1.953125 0l-3.34375 4.546875l3.59375 5.125l-2.015625 0l-1.984375 -3.0l-0.515625 -0.8125l-2.546875 3.8125l-1.984375 0z" fill-rule="nonzero"/><path fill="#000000" fill-opacity="0.0" d="m124.74541 68.35171l51.93701 -0.22047424" fill-rule="evenodd"/><path stroke="#000000" stroke-width="2.0" stroke-linejoin="round" stroke-linecap="butt" d="m124.74541 68.35171l51.93701 -0.22047424" fill-rule="evenodd"/><path fill="#000000" fill-opacity="0.0" d="m118.333336 62.57349l68.40945 0l0 25.29134l-68.40945 0z" fill-rule="evenodd"/><path fill="#000000" d="m129.02083 89.49349l0 -1.875l1.875 0l0 1.875l-1.875 0zm4.277054 -3.5l1.71875 -0.140625q0.1875 1.25 0.875 1.890625q0.703125 0.625 1.6875 0.625q1.1875 0 2.0 -0.890625q0.828125 -0.890625 0.828125 -2.359375q0 -1.40625 -0.796875 -2.21875q-0.78125 -0.8125 -2.0625 -0.8125q-0.78125 0 -1.421875 0.359375q-0.640625 0.359375 -1.0 0.9375l-1.546875 -0.203125l1.296875 -6.859375l6.640625 0l0 1.5625l-5.328125 0l-0.71875 3.59375q1.203125 -0.84375 2.515625 -0.84375q1.75 0 2.953125 1.21875q1.203125 1.203125 1.203125 3.109375q0 1.8125 -1.046875 3.140625q-1.296875 1.625 -3.515625 1.625q-1.8125 0 -2.96875 -1.015625q-1.15625 -1.03125 -1.3125 -2.71875zm32.83188 -1.734375l0 -1.578125l5.65625 0l0 4.953125q-1.296875 1.046875 -2.6875 1.578125q-1.375 0.515625 -2.84375 0.515625q-1.96875 0 -3.578125 -0.84375q-1.609375 -0.84375 -2.421875 -2.4375q-0.8125 -1.59375 -0.8125 -3.5625q0 -1.953125 0.8125 -3.640625q0.8125 -1.6875 2.34375 -2.5q1.53125 -0.828125 3.515625 -0.828125q1.453125 0 2.625 0.46875q1.171875 0.46875 1.828125 1.3125q0.671875 0.828125 1.015625 2.171875l-1.59375 0.4375q-0.296875 -1.015625 -0.75 -1.59375q-0.4375 -0.59375 -1.265625 -0.9375q-0.828125 -0.34375 -1.84375 -0.34375q-1.203125 0 -2.09375 0.375q-0.890625 0.359375 -1.4375 0.96875q-0.53125 0.59375 -0.828125 1.3125q-0.515625 1.234375 -0.515625 2.6875q0 1.78125 0.609375 2.984375q0.625 1.203125 1.796875 1.796875q1.171875 0.578125 2.5 0.578125q1.140625 0 2.234375 -0.4375q1.09375 -0.453125 1.65625 -0.953125l0 -2.484375l-3.921875 0z" fill-rule="nonzero"/><path fill="#000000" d="m147.79921 82.038055l0 0c0 -1.6438065 1.3043671 -2.9763794 2.913391 -2.9763794l0 0c0.77267456 0 1.5137024 0.31358337 2.0600739 0.87176514c0.54637146 0.55818176 0.85331726 1.3152313 0.85331726 2.1046143l0 0c0 1.6438141 -1.3043823 2.9763794 -2.913391 2.9763794l0 0c-1.609024 0 -2.913391 -1.3325653 -2.913391 -2.9763794z" fill-rule="evenodd"/><path stroke="#000000" stroke-width="1.0" stroke-linejoin="round" stroke-linecap="butt" d="m147.79921 82.038055l0 0c0 -1.6438065 1.3043671 -2.9763794 2.913391 -2.9763794l0 0c0.77267456 0 1.5137024 0.31358337 2.0600739 0.87176514c0.54637146 0.55818176 0.85331726 1.3152313 0.85331726 2.1046143l0 0c0 1.6438141 -1.3043823 2.9763794 -2.913391 2.9763794l0 0c-1.609024 0 -2.913391 -1.3325653 -2.913391 -2.9763794z" fill-rule="evenodd"/></g></svg>