<svg version="1.1" viewBox="0.0 0.0 310.6115485564304 315.37270341207346" fill="none" stroke="none" stroke-linecap="square" stroke-miterlimit="10" xmlns:xlink="http://www.w3.org/1999/xlink" xmlns="http://www.w3.org/2000/svg"><clipPath id="p.0"><path d="m0 0l310.61154 0l0 315.3727l-310.61154 0l0 -315.3727z" clip-rule="nonzero"/></clipPath><g clip-path="url(#p.0)"><path fill="#000000" fill-opacity="0.0" d="m0 0l310.61154 0l0 315.3727l-310.61154 0z" fill-rule="evenodd"/><path fill="#f1c232" d="m172.36613 126.348404l-4.687622 28.679764l-5.556534 0.28923035l-0.21827698 26.923874l-5.911911 0.86421204l-5.5697327 41.86125l-9.3862915 -40.521225l6.906555 -0.5506134l-5.533798 -25.659653l8.619431 -1.5433655l-5.910309 -26.983032z" fill-rule="evenodd"/><path stroke="#000000" stroke-width="1.0" stroke-linejoin="round" stroke-linecap="butt" d="m172.36613 126.348404l-4.687622 28.679764l-5.556534 0.28923035l-0.21827698 26.923874l-5.911911 0.86421204l-5.5697327 41.86125l-9.3862915 -40.521225l6.906555 -0.5506134l-5.533798 -25.659653l8.619431 -1.5433655l-5.910309 -26.983032z" fill-rule="evenodd"/></g></svg>