<svg version="1.1" viewBox="0.0 0.0 310.6115485564304 315.37270341207346" fill="none" stroke="none" stroke-linecap="square" stroke-miterlimit="10" xmlns:xlink="http://www.w3.org/1999/xlink" xmlns="http://www.w3.org/2000/svg"><clipPath id="p.0"><path d="m0 0l310.61154 0l0 315.3727l-310.61154 0l0 -315.3727z" clip-rule="nonzero"/></clipPath><g clip-path="url(#p.0)"><path fill="#000000" fill-opacity="0.0" d="m0 0l310.61154 0l0 315.3727l-310.61154 0z" fill-rule="evenodd"/><path fill="#ff0000" d="m166.01535 123.79526l0.03149414 126.92914l-51.08661 0l-0.03149414 -126.92914z" fill-rule="evenodd"/><path stroke="#000000" stroke-width="4.0" stroke-linejoin="round" stroke-linecap="butt" d="m166.01535 123.79526l0.03149414 126.92914l-51.08661 0l-0.03149414 -126.92914z" fill-rule="evenodd"/><path fill="#ffff00" d="m114.92913 123.79527l25.55906 -74.55118l25.559052 74.55118z" fill-rule="evenodd"/><path stroke="#000000" stroke-width="4.0" stroke-linejoin="round" stroke-linecap="butt" d="m114.92913 123.79527l25.55906 -74.55118l25.559052 74.55118z" fill-rule="evenodd"/><path fill="#ff9900" d="m166.04724 250.72441l0 -60.472443l31.275589 60.472443z" fill-rule="evenodd"/><path stroke="#000000" stroke-width="4.0" stroke-linejoin="round" stroke-linecap="butt" d="m166.04724 250.72441l0 -60.472443l31.275589 60.472443z" fill-rule="evenodd"/><path fill="#ff9900" d="m114.92913 250.72441l0 -60.472443l-31.275589 60.472443z" fill-rule="evenodd"/><path stroke="#000000" stroke-width="4.0" stroke-linejoin="round" stroke-linecap="butt" d="m114.92913 250.72441l0 -60.472443l-31.275589 60.472443z" fill-rule="evenodd"/></g></svg>